SplineFontDB: 3.0
FontName: VerovioText
FullName: VerovioText
FamilyName: VerovioText
Weight: Regular
Copyright: 
Version: 1.0
ItalicAngle: 0
UnderlinePosition: -102.4
UnderlineWidth: 102.4
Ascent: 1638
Descent: 410
sfntRevision: 0x00010000
LayerCount: 2
Layer: 0 0 "Back"  1
Layer: 1 0 "Fore"  0
XUID: [1021 638 1292611596 2672637]
FSType: 8
OS2Version: 3
OS2_WeightWidthSlopeOnly: 0
OS2_UseTypoMetrics: 1
CreationTime: 1413579002
ModificationTime: 1421225450
PfmFamily: 81
TTFWeight: 400
TTFWidth: 5
LineGap: 184
VLineGap: 0
Panose: 5 6 0 0 0 0 0 0 0 0
OS2TypoAscent: 1638
OS2TypoAOffset: 0
OS2TypoDescent: -410
OS2TypoDOffset: 0
OS2TypoLinegap: 184
OS2WinAscent: 4129
OS2WinAOffset: 0
OS2WinDescent: 2445
OS2WinDOffset: 0
HheadAscent: 4129
HheadAOffset: 0
HheadDescent: -2445
HheadDOffset: 0
OS2SubXSize: 1331
OS2SubYSize: 1434
OS2SubXOff: 0
OS2SubYOff: 287
OS2SupXSize: 1331
OS2SupYSize: 1434
OS2SupXOff: 0
OS2SupYOff: 983
OS2StrikeYSize: 100
OS2StrikeYPos: 528
OS2Vendor: 'PfEd'
OS2CodePages: 00000001.00000000
OS2UnicodeRanges: 00000000.10000000.00000000.00000000
MarkAttachClasses: 1
DEI: 91125
LangName: 1033 "" "" "" "FontForge 2.0 : VerovioText : 17-10-2014" "" "Version 1.0" 
Encoding: UnicodeBmp
UnicodeInterp: none
NameList: Adobe Glyph List
DisplaySize: -72
AntiAlias: 1
FitToEm: 1
WinInfo: 58690 10 4
BeginPrivate: 3
BlueScale 8 0.039625
BlueShift 2 27
ExpansionFactor 4 0.06
EndPrivate
BeginChars: 65536 27

StartChar: uniE1D0
Encoding: 57808 57808 1
Width: 1073
GlyphClass: 2
Flags: HW
LayerCount: 2
Fore
SplineSet
55 555 m 2
 55 549 49 545 39 545 c 2
 16 545 l 2
 6 545 0 549 0 555 c 2
 0 1085 l 2
 0 1091 6 1098 16 1098 c 2
 39 1098 l 2
 49 1098 55 1091 55 1085 c 2
 55 555 l 2
160 555 m 2
 160 549 151 545 143 545 c 2
 119 545 l 2
 111 545 102 549 102 555 c 2
 102 1085 l 2
 102 1091 111 1098 119 1098 c 2
 143 1098 l 2
 151 1098 160 1091 160 1085 c 2
 160 555 l 2
545 1044 m 0
 711 1044 911 948 911 821 c 0
 911 698 817 596 526 596 c 0
 262 596 160 704 160 821 c 0
 160 944 307 1044 545 1044 c 0
356 932 m 0
 354 920 352 905 352 891 c 0
 352 834 381 774 414 731 c 0
 424 717 439 702 451 692 c 0
 476 669 504 653 537 643 c 0
 553 639 568 637 584 637 c 0
 602 637 619 639 635 643 c 0
 680 655 707 686 715 731 c 0
 717 741 717 752 717 764 c 0
 717 873 619 1001 498 1001 c 0
 443 1001 376 993 356 932 c 0
971 555 m 2
 971 549 962 545 954 545 c 2
 930 545 l 2
 922 545 913 549 913 555 c 2
 913 1085 l 2
 913 1091 922 1098 930 1098 c 2
 954 1098 l 2
 962 1098 971 1091 971 1085 c 2
 971 555 l 2
1073 555 m 2
 1073 549 1065 545 1055 545 c 2
 1032 545 l 2
 1024 545 1014 549 1014 555 c 2
 1014 1085 l 2
 1014 1091 1024 1098 1032 1098 c 2
 1055 1098 l 2
 1065 1098 1073 1091 1073 1085 c 2
 1073 555 l 2
EndSplineSet
EndChar

StartChar: uniE1D1
Encoding: 57809 57809 2
Width: 872
GlyphClass: 2
Flags: HW
LayerCount: 2
Fore
SplineSet
848 1229 m 0
 862 1229 872 1216 872 1202 c 2
 872 436 l 2
 872 422 862 410 848 410 c 0
 832 410 821 422 821 436 c 2
 821 504 l 1
 821 504 799 545 772 545 c 2
 96 545 l 2
 78 545 53 521 53 496 c 2
 53 436 l 2
 53 422 41 410 27 410 c 0
 13 410 0 422 0 436 c 2
 0 1202 l 2
 0 1216 13 1229 27 1229 c 0
 41 1229 53 1216 53 1202 c 2
 53 1124 l 1
 53 1124 76 1075 90 1075 c 2
 772 1075 l 2
 795 1075 821 1091 821 1128 c 2
 821 1202 l 2
 821 1216 832 1229 848 1229 c 0
53 840 m 2
 53 776 l 2
 53 737 96 709 170 709 c 2
 709 709 l 2
 777 709 821 729 821 776 c 2
 821 852 l 2
 821 887 777 911 709 911 c 2
 162 911 l 2
 84 911 53 889 53 840 c 2
EndSplineSet
EndChar

StartChar: uniE1D2
Encoding: 57810 57810 3
Width: 751
GlyphClass: 2
Flags: HW
LayerCount: 2
Fore
SplineSet
385 1061 m 0
 551 1061 752 967 752 840 c 0
 752 717 660 614 367 614 c 0
 103 614 0 721 0 840 c 0
 0 963 147 1061 385 1061 c 0
199 950 m 0
 193 936 193 921 193 905 c 0
 193 850 219 791 254 750 c 0
 266 734 279 721 291 709 c 0
 316 689 346 672 375 662 c 0
 391 658 406 655 422 655 c 0
 440 655 459 658 477 662 c 0
 520 674 547 705 555 750 c 0
 557 758 559 770 559 782 c 0
 559 888 461 1020 340 1020 c 0
 283 1020 217 1011 199 950 c 0
EndSplineSet
EndChar

StartChar: uniE1D3
Encoding: 57811 57811 4
Width: 559
GlyphClass: 2
Flags: HW
LayerCount: 2
Fore
SplineSet
184 582 m 0
 80 582 0 639 0 739 c 0
 0 837 88 1057 373 1057 c 0
 430 1057 477 1041 510 1012 c 1
 510 2331 l 1
 559 2331 l 1
 559 897 l 2
 559 834 495 582 184 582 c 0
227 905 m 0
 96 829 55 776 55 735 c 0
 55 723 62 708 68 698 c 0
 80 675 102 655 143 655 c 0
 184 655 242 676 328 733 c 0
 461 819 500 864 500 903 c 0
 500 915 495 928 487 938 c 1
 475 963 455 979 420 979 c 0
 381 979 321 958 227 905 c 0
EndSplineSet
EndChar

StartChar: uniE1D4
Encoding: 57812 57812 5
Width: 559
GlyphClass: 2
Flags: HW
LayerCount: 2
Fore
SplineSet
373 1057 m 0
 482 1057 559 995 559 897 c 0
 559 836 495 582 184 582 c 0
 129 582 82 598 49 627 c 1
 49 -692 l 1
 0 -692 l 1
 0 741 l 2
 0 839 88 1057 373 1057 c 0
328 733 m 0
 461 819 500 864 500 903 c 0
 500 915 495 928 487 938 c 1
 475 963 455 979 420 979 c 0
 381 979 321 958 227 905 c 0
 96 829 55 776 55 735 c 0
 55 723 62 708 68 698 c 0
 80 675 102 655 143 655 c 0
 184 655 242 676 328 733 c 0
EndSplineSet
EndChar

StartChar: uniE1D5
Encoding: 57813 57813 6
Width: 544
GlyphClass: 2
Flags: HW
LayerCount: 2
Fore
SplineSet
496 1008 m 1
 496 2331 l 1
 545 2331 l 1
 545 897 l 2
 545 741 342 588 178 588 c 0
 78 588 0 645 0 741 c 0
 0 901 162 1051 365 1051 c 0
 418 1051 463 1037 496 1008 c 1
EndSplineSet
EndChar

StartChar: uniE1D6
Encoding: 57814 57814 7
Width: 544
GlyphClass: 2
Flags: HW
LayerCount: 2
Fore
SplineSet
365 1051 m 0
 471 1051 545 989 545 897 c 0
 545 741 342 588 178 588 c 0
 127 588 82 604 49 633 c 1
 49 -692 l 1
 0 -692 l 1
 0 317 l 1
 0 741 l 2
 0 901 162 1051 365 1051 c 0
EndSplineSet
EndChar

StartChar: uniE1D7
Encoding: 57815 57815 8
Width: 905
GlyphClass: 2
Flags: HW
LayerCount: 2
Fore
SplineSet
557 2372 m 0
 586 2241 649 2126 727 2017 c 0
 825 1880 899 1716 905 1542 c 1
 905 1530 l 2
 905 1440 872 1317 866 1303 c 0
 856 1283 846 1274 834 1274 c 0
 832 1274 825 1274 823 1276 c 0
 813 1282 799 1295 799 1315 c 0
 799 1323 799 1329 803 1337 c 0
 830 1398 840 1465 840 1528 c 0
 840 1610 821 1686 803 1735 c 0
 733 1930 615 1977 545 1991 c 1
 545 901 l 2
 545 745 342 594 178 594 c 0
 78 594 0 652 0 748 c 0
 0 906 162 1055 365 1055 c 0
 418 1055 463 1041 496 1012 c 1
 496 2386 l 2
 496 2402 502 2402 512 2402 c 2
 522 2402 l 2
 536 2402 551 2399 557 2372 c 0
EndSplineSet
EndChar

StartChar: uniE1D8
Encoding: 57816 57816 9
Width: 544
GlyphClass: 2
Flags: HW
LayerCount: 2
Fore
SplineSet
365 1051 m 0
 471 1051 545 989 545 897 c 0
 545 741 342 588 178 588 c 0
 127 588 82 604 49 633 c 1
 49 -215 l 1
 121 -203 241 -158 317 49 c 0
 333 96 348 176 348 262 c 0
 348 342 336 430 307 502 c 0
 303 510 301 516 301 522 c 0
 301 545 318 557 328 561 c 0
 332 563 334 563 338 563 c 0
 348 563 363 555 373 537 c 1
 379 521 430 354 430 258 c 2
 430 250 l 1
 422 70 348 -101 242 -242 c 0
 160 -351 84 -455 55 -592 c 0
 53 -610 32 -629 20 -629 c 0
 12 -629 2 -606 0 -606 c 1
 0 387 l 1
 0 741 l 2
 0 901 162 1051 365 1051 c 0
EndSplineSet
EndChar

StartChar: uniE1D9
Encoding: 57817 57817 10
Width: 929
GlyphClass: 2
Flags: HW
LayerCount: 2
Fore
SplineSet
881 1563 m 0
 881 1557 883 1552 883 1548 c 0
 912 1491 930 1428 930 1362 c 2
 930 1329 l 2
 930 1253 924 1165 918 1157 c 0
 908 1137 897 1130 887 1130 c 0
 881 1130 878 1133 872 1135 c 0
 864 1137 852 1151 852 1171 c 0
 852 1175 852 1180 854 1184 c 0
 862 1233 866 1278 866 1323 c 0
 866 1405 852 1480 815 1554 c 0
 725 1740 629 1772 543 1778 c 1
 543 901 l 2
 543 745 340 594 178 594 c 0
 78 594 0 652 0 748 c 0
 0 906 162 1055 365 1055 c 0
 416 1055 463 1041 496 1012 c 1
 496 2396 l 1
 520 2396 l 2
 530 2396 549 2394 553 2378 c 0
 578 2212 666 2187 750 2097 c 0
 863 1976 902 1933 918 1827 c 0
 922 1809 922 1790 922 1772 c 0
 922 1676 889 1583 883 1573 c 0
 881 1569 881 1567 881 1563 c 0
862 1724 m 0
 864 1734 864 1745 864 1755 c 0
 864 1806 848 1853 821 1894 c 0
 770 1970 686 2056 592 2056 c 2
 578 2056 l 2
 568 2056 557 2048 557 2042 c 0
 557 2040 557 2038 559 2036 c 0
 592 1909 661 1872 735 1788 c 0
 768 1751 794 1720 819 1681 c 0
 823 1675 825 1675 831 1675 c 0
 839 1675 848 1679 850 1683 c 0
 858 1695 858 1712 862 1724 c 0
EndSplineSet
EndChar

StartChar: uniE1DA
Encoding: 57818 57818 11
Width: 544
GlyphClass: 2
Flags: HW
LayerCount: 2
Fore
SplineSet
365 1051 m 0
 471 1051 545 989 545 897 c 0
 545 741 342 588 178 588 c 0
 127 588 82 604 49 633 c 1
 49 -59 l 1
 135 -51 228 -18 334 172 c 0
 373 240 385 291 385 336 c 0
 385 391 364 442 352 518 c 0
 350 522 350 528 350 532 c 0
 350 552 363 569 373 573 c 0
 377 573 379 575 381 575 c 0
 393 575 408 569 418 549 c 0
 426 537 453 430 453 348 c 2
 453 330 l 1
 447 224 439 205 414 160 c 1
 408 152 l 1
 406 146 406 143 406 139 c 0
 406 135 406 133 408 127 c 2
 408 127 410 123 410 121 c 0
 418 103 444 35 444 -47 c 0
 444 -70 442 -92 438 -115 c 0
 418 -221 381 -266 266 -393 c 1
 178 -487 84 -514 55 -690 c 0
 53 -702 30 -721 20 -721 c 0
 10 -721 0 -700 0 -700 c 1
 0 -61 l 1
 0 741 l 2
 0 901 162 1051 365 1051 c 0
250 -72 m 0
 174 -160 98 -199 61 -330 c 1
 61 -338 70 -350 86 -350 c 2
 100 -350 l 2
 200 -350 283 -264 338 -184 c 0
 365 -143 381 -96 381 -47 c 0
 381 -33 381 -16 377 -2 c 1
 377 8 373 23 371 37 c 0
 369 41 358 45 350 45 c 0
 346 45 340 45 338 39 c 0
 309 -2 283 -35 250 -72 c 0
EndSplineSet
EndChar

StartChar: uniE1DB
Encoding: 57819 57819 12
Width: 921
GlyphClass: 2
Flags: HW
LayerCount: 2
Fore
SplineSet
922 1368 m 1
 922 1323 l 2
 922 1251 915 1175 911 1167 c 0
 899 1149 889 1141 879 1141 c 0
 875 1141 872 1143 868 1143 c 0
 856 1149 848 1164 848 1184 c 2
 848 1194 l 1
 856 1241 862 1288 862 1333 c 0
 862 1413 848 1487 811 1559 c 0
 721 1741 627 1770 543 1776 c 1
 543 901 l 2
 543 745 340 594 178 594 c 0
 78 594 0 652 0 748 c 0
 0 906 162 1055 365 1055 c 0
 416 1055 463 1041 496 1012 c 1
 496 2695 l 1
 496 2695 504 2716 514 2716 c 0
 524 2716 545 2699 547 2683 c 0
 576 2519 663 2494 745 2404 c 0
 856 2285 893 2240 911 2142 c 0
 913 2126 913 2111 913 2095 c 0
 913 2032 897 1964 881 1921 c 1
 895 1894 905 1864 911 1827 c 0
 913 1807 915 1789 915 1769 c 0
 915 1675 881 1585 879 1575 c 0
 877 1571 877 1569 877 1565 c 0
 877 1561 877 1556 879 1552 c 0
 904 1495 918 1431 922 1368 c 1
854 1724 m 0
 856 1736 856 1749 856 1763 c 0
 856 1810 842 1855 815 1894 c 0
 766 1970 682 2052 578 2052 c 0
 570 2052 557 2034 557 2032 c 0
 590 1905 661 1872 733 1788 c 1
 741 1780 l 1
 768 1747 790 1718 815 1683 c 0
 817 1677 823 1675 827 1675 c 0
 835 1675 844 1682 846 1686 c 0
 850 1698 850 1710 854 1724 c 0
856 2060 m 1
 856 2072 860 2083 860 2095 c 0
 860 2118 854 2142 836 2175 c 0
 746 2327 649 2365 559 2365 c 1
 586 2207 665 2179 745 2091 c 0
 782 2050 813 2020 836 1989 c 1
 844 2018 852 2044 856 2060 c 1
EndSplineSet
EndChar

StartChar: uniE1DC
Encoding: 57820 57820 13
Width: 544
GlyphClass: 2
Flags: HW
LayerCount: 2
Fore
SplineSet
365 1051 m 0
 471 1051 545 989 545 897 c 0
 545 741 342 588 178 588 c 0
 127 588 82 604 49 633 c 1
 49 -39 l 1
 135 -31 226 2 330 186 c 0
 367 254 381 301 381 348 c 0
 381 403 360 454 348 528 c 0
 348 532 346 537 346 539 c 0
 346 562 357 578 369 582 c 0
 373 584 375 584 379 584 c 0
 389 584 402 577 414 557 c 0
 420 545 446 442 446 360 c 2
 446 342 l 1
 440 238 432 219 412 178 c 1
 406 168 l 2
 402 162 399 160 399 156 c 0
 399 152 406 145 406 141 c 0
 412 125 438 53 438 -31 c 0
 438 -54 436 -74 432 -94 c 0
 426 -135 415 -168 399 -197 c 1
 413 -242 436 -313 436 -383 c 0
 436 -399 436 -416 432 -430 c 0
 414 -536 375 -582 260 -707 c 0
 176 -799 82 -825 53 -995 c 1
 53 -1011 30 -1028 20 -1028 c 0
 10 -1028 0 -1008 0 -1008 c 1
 0 -43 l 1
 0 741 l 2
 0 901 162 1051 365 1051 c 0
248 -53 m 0
 174 -141 98 -176 63 -307 c 1
 63 -315 70 -330 86 -330 c 2
 94 -330 l 2
 194 -330 283 -242 332 -164 c 1
 361 -123 377 -76 377 -27 c 0
 377 -13 375 2 373 14 c 0
 371 28 371 41 365 53 c 0
 365 57 354 61 346 61 c 0
 340 61 336 61 332 55 c 0
 307 14 281 -16 248 -53 c 0
260 -371 m 0
 176 -463 92 -489 63 -659 c 0
 63 -661 64 -664 68 -666 c 1
 160 -666 260 -623 354 -465 c 0
 372 -430 381 -406 381 -383 c 0
 381 -371 377 -360 375 -348 c 0
 371 -332 362 -297 352 -266 c 1
 329 -295 299 -328 260 -371 c 0
EndSplineSet
EndChar

StartChar: uniE1DD
Encoding: 57821 57821 14
Width: 921
GlyphClass: 2
Flags: HW
LayerCount: 2
Fore
SplineSet
879 1554 m 0
 904 1495 918 1433 922 1370 c 1
 922 1323 l 2
 922 1253 915 1177 911 1167 c 1
 899 1151 889 1143 879 1143 c 0
 875 1143 872 1143 868 1145 c 0
 856 1151 848 1166 848 1184 c 2
 848 1196 l 1
 856 1243 862 1290 862 1335 c 0
 862 1413 848 1487 811 1561 c 0
 721 1743 627 1772 543 1778 c 1
 543 901 l 2
 543 745 340 594 178 594 c 0
 78 594 0 652 0 748 c 0
 0 906 162 1055 365 1055 c 0
 416 1055 463 1041 496 1012 c 1
 496 3021 l 1
 496 3021 504 3041 514 3041 c 0
 524 3041 545 3025 547 3011 c 0
 576 2847 663 2820 745 2732 c 0
 856 2611 893 2568 911 2468 c 0
 913 2454 913 2437 913 2423 c 0
 913 2355 893 2282 879 2241 c 1
 895 2212 905 2181 911 2142 c 0
 913 2128 913 2113 913 2097 c 0
 913 2034 897 1966 881 1923 c 1
 895 1896 905 1866 911 1829 c 0
 913 1809 915 1790 915 1772 c 0
 915 1678 881 1587 879 1577 c 0
 877 1573 877 1569 877 1567 c 0
 877 1561 877 1558 879 1554 c 0
854 1724 m 1
 856 1738 856 1751 856 1765 c 0
 856 1812 842 1855 815 1896 c 0
 766 1970 682 2054 578 2054 c 1
 570 2052 557 2036 557 2034 c 0
 590 1907 661 1872 733 1790 c 1
 741 1782 l 1
 768 1749 790 1720 815 1683 c 0
 817 1679 823 1677 827 1677 c 0
 835 1677 844 1684 846 1688 c 0
 850 1700 850 1712 854 1724 c 1
856 2062 m 1
 856 2074 860 2085 860 2097 c 0
 860 2117 854 2142 836 2175 c 0
 746 2329 649 2367 559 2367 c 1
 586 2207 665 2181 745 2093 c 0
 782 2052 813 2020 836 1991 c 1
 844 2020 852 2046 856 2062 c 1
856 2388 m 1
 856 2398 860 2409 860 2421 c 0
 860 2444 854 2468 836 2501 c 0
 746 2651 651 2691 559 2691 c 1
 561 2691 561 2687 561 2685 c 0
 588 2521 663 2494 745 2406 c 0
 782 2365 811 2335 834 2306 c 1
 856 2388 l 1
EndSplineSet
EndChar

StartChar: uniE1DF
Encoding: 57823 57823 15
Width: 921
GlyphClass: 2
Flags: HW
LayerCount: 2
Fore
SplineSet
879 1554 m 0
 904 1495 918 1433 922 1370 c 1
 922 1323 l 2
 922 1253 915 1177 911 1167 c 1
 899 1151 889 1143 879 1143 c 0
 875 1143 872 1143 868 1145 c 0
 856 1151 848 1166 848 1184 c 2
 848 1196 l 1
 856 1243 862 1290 862 1335 c 0
 862 1413 848 1487 811 1561 c 0
 721 1741 629 1772 545 1778 c 1
 545 901 l 2
 545 745 342 594 178 594 c 0
 78 594 0 652 0 748 c 0
 0 906 162 1055 365 1055 c 0
 418 1055 463 1041 496 1012 c 1
 496 3326 l 1
 496 3326 504 3346 514 3346 c 0
 524 3346 545 3330 547 3314 c 0
 576 3150 663 3125 745 3035 c 0
 856 2916 893 2871 911 2773 c 0
 913 2757 913 2740 913 2724 c 0
 913 2663 897 2599 883 2558 c 1
 897 2529 905 2503 911 2468 c 0
 913 2454 913 2437 913 2423 c 0
 913 2355 893 2282 879 2241 c 1
 895 2212 905 2181 911 2142 c 0
 913 2128 913 2113 913 2097 c 0
 913 2034 897 1966 881 1923 c 1
 895 1896 905 1866 911 1829 c 0
 913 1809 915 1790 915 1772 c 0
 915 1678 881 1587 879 1577 c 0
 877 1573 877 1569 877 1567 c 0
 877 1561 877 1558 879 1554 c 0
854 1724 m 1
 856 1738 856 1751 856 1765 c 0
 856 1812 842 1855 815 1896 c 0
 766 1970 682 2054 578 2054 c 1
 570 2052 557 2036 557 2034 c 0
 590 1907 661 1872 733 1790 c 1
 741 1782 l 1
 768 1749 790 1720 815 1683 c 0
 817 1679 823 1677 827 1677 c 0
 835 1677 844 1684 846 1688 c 0
 850 1700 850 1712 854 1724 c 1
856 2062 m 1
 856 2074 860 2085 860 2097 c 0
 860 2117 854 2142 836 2175 c 0
 746 2329 649 2367 559 2367 c 1
 586 2207 665 2181 745 2093 c 0
 782 2052 813 2020 836 1991 c 1
 844 2020 852 2046 856 2062 c 1
856 2388 m 1
 856 2398 860 2409 860 2421 c 0
 860 2444 854 2468 836 2501 c 0
 746 2651 651 2691 557 2691 c 1
 559 2691 559 2687 559 2685 c 0
 586 2521 663 2494 745 2406 c 0
 782 2365 811 2335 834 2306 c 1
 856 2388 l 1
856 2691 m 1
 856 2703 860 2714 860 2726 c 0
 860 2749 854 2773 836 2806 c 0
 746 2958 647 2996 557 2996 c 1
 586 2844 667 2818 745 2732 c 0
 784 2689 815 2657 838 2626 c 1
 846 2653 852 2677 856 2691 c 1
EndSplineSet
EndChar

StartChar: uniE1E0
Encoding: 57824 57824 16
Width: 544
GlyphClass: 2
Flags: HW
LayerCount: 2
Fore
SplineSet
365 1051 m 0
 471 1051 545 989 545 897 c 0
 545 741 342 588 178 588 c 0
 127 588 82 604 49 633 c 1
 49 -41 l 1
 135 -33 226 0 330 184 c 0
 367 252 381 299 381 346 c 0
 381 401 360 452 348 526 c 0
 348 530 346 535 346 537 c 0
 346 560 357 576 369 580 c 0
 373 582 375 582 379 582 c 0
 389 582 402 575 414 555 c 0
 420 545 446 440 446 358 c 2
 446 340 l 1
 440 236 432 217 412 176 c 1
 406 166 l 2
 402 160 399 158 399 154 c 0
 399 150 406 143 406 139 c 0
 412 123 438 53 438 -33 c 0
 438 -53 436 -76 432 -96 c 0
 426 -135 415 -168 399 -199 c 1
 413 -242 436 -315 436 -385 c 0
 436 -401 436 -418 432 -432 c 0
 426 -471 415 -504 399 -535 c 1
 415 -578 438 -649 438 -717 c 0
 438 -733 436 -750 432 -766 c 0
 426 -807 415 -837 399 -868 c 1
 415 -911 438 -983 438 -1053 c 0
 438 -1069 436 -1086 432 -1102 c 0
 414 -1206 375 -1251 260 -1376 c 0
 176 -1470 82 -1495 53 -1667 c 1
 53 -1681 30 -1700 20 -1700 c 0
 10 -1700 0 -1677 0 -1677 c 1
 0 -45 l 1
 0 741 l 2
 0 901 162 1051 365 1051 c 0
248 -55 m 0
 174 -143 98 -178 63 -309 c 1
 63 -317 70 -332 86 -332 c 2
 94 -332 l 2
 194 -332 283 -244 332 -166 c 1
 361 -125 377 -78 377 -29 c 0
 377 -15 375 0 373 12 c 0
 371 26 371 39 365 51 c 0
 365 55 354 61 346 61 c 0
 340 61 336 59 332 53 c 0
 307 12 281 -18 248 -55 c 0
260 -373 m 0
 176 -465 92 -492 63 -662 c 0
 63 -664 64 -666 68 -668 c 1
 160 -668 260 -625 354 -467 c 0
 372 -432 381 -405 381 -385 c 0
 381 -373 377 -362 375 -350 c 0
 371 -332 362 -299 352 -266 c 1
 329 -297 299 -330 260 -373 c 0
260 -709 m 0
 166 -811 86 -847 63 -1001 c 1
 155 -1001 260 -959 354 -801 c 0
 372 -766 381 -742 381 -719 c 0
 381 -707 377 -696 375 -684 c 2
 354 -602 l 1
 329 -633 299 -666 260 -709 c 0
260 -1042 m 0
 166 -1144 86 -1181 63 -1335 c 1
 155 -1335 260 -1293 354 -1135 c 0
 372 -1102 381 -1076 381 -1053 c 0
 381 -1041 377 -1030 375 -1020 c 2
 354 -938 l 1
 329 -967 299 -999 260 -1042 c 0
EndSplineSet
EndChar

StartChar: uniE1E1
Encoding: 57825 57825 17
Width: 927
GlyphClass: 2
Flags: HW
LayerCount: 2
Fore
SplineSet
922 2109 m 0
 926 2093 928 2074 928 2056 c 0
 928 1995 913 1933 899 1888 c 1
 905 1870 911 1848 913 1823 c 1
 917 1805 920 1783 920 1765 c 0
 920 1669 885 1579 881 1569 c 1
 881 1561 l 1
 881 1546 l 1
 908 1487 922 1423 926 1362 c 0
 926 1348 928 1331 928 1315 c 0
 928 1243 921 1165 913 1157 c 1
 905 1137 895 1128 883 1128 c 0
 879 1128 872 1131 870 1133 c 0
 858 1135 848 1151 848 1169 c 0
 848 1175 848 1178 850 1184 c 0
 858 1233 864 1278 864 1323 c 0
 864 1403 848 1478 815 1550 c 0
 725 1738 629 1768 545 1774 c 1
 545 901 l 2
 545 745 342 594 178 594 c 0
 78 594 0 652 0 748 c 0
 0 906 162 1055 365 1055 c 0
 418 1055 463 1041 496 1012 c 1
 496 3598 l 2
 496 3608 518 3613 520 3613 c 0
 532 3613 545 3613 545 3584 c 1
 574 3424 664 3379 750 3289 c 2
 778 3258 l 2
 866 3162 908 3115 922 3027 c 0
 926 3011 926 2994 926 2978 c 0
 926 2912 911 2847 897 2802 c 1
 909 2777 918 2751 922 2722 c 0
 926 2706 926 2689 926 2671 c 0
 926 2610 911 2539 897 2494 c 1
 909 2469 918 2446 922 2415 c 0
 926 2399 926 2381 926 2363 c 0
 926 2302 911 2232 897 2189 c 1
 909 2164 918 2138 922 2109 c 0
856 1722 m 0
 858 1732 860 1745 860 1757 c 0
 860 1804 844 1849 815 1892 c 0
 768 1966 684 2052 588 2052 c 2
 578 2052 l 2
 566 2052 559 2040 559 2030 c 1
 588 1905 659 1868 735 1782 c 0
 766 1749 790 1716 815 1675 c 0
 819 1671 823 1669 829 1669 c 0
 837 1669 846 1675 848 1681 c 0
 854 1693 854 1708 856 1722 c 0
856 2028 m 1
 860 2038 862 2050 862 2062 c 0
 862 2085 856 2107 838 2140 c 0
 750 2290 647 2331 559 2333 c 1
 592 2202 670 2175 750 2093 c 1
 791 2048 821 2013 844 1982 c 1
 850 2000 854 2016 856 2028 c 1
856 2333 m 1
 860 2345 862 2356 862 2370 c 0
 862 2390 856 2414 838 2447 c 0
 748 2601 649 2640 559 2640 c 1
 592 2501 670 2460 750 2372 c 2
 840 2271 l 1
 846 2294 854 2319 856 2333 c 1
856 2640 m 1
 860 2650 862 2663 862 2675 c 0
 862 2698 856 2719 838 2750 c 0
 748 2906 649 2945 559 2945 c 1
 592 2806 670 2765 750 2677 c 2
 840 2576 l 1
 846 2601 854 2626 856 2640 c 1
856 2945 m 1
 860 2957 862 2970 862 2982 c 0
 862 3002 856 3027 838 3058 c 0
 748 3214 649 3252 559 3252 c 1
 592 3113 670 3072 750 2984 c 2
 840 2884 l 1
 846 2907 854 2931 856 2945 c 1
EndSplineSet
EndChar

StartChar: uniE1E2
Encoding: 57826 57826 18
Width: 544
GlyphClass: 2
Flags: HW
LayerCount: 2
Fore
SplineSet
178 588 m 0
 127 588 82 604 49 633 c 1
 49 -57 l 1
 135 -47 223 -14 332 174 c 0
 369 242 381 291 381 338 c 0
 381 393 362 444 348 518 c 1
 348 532 l 2
 348 552 359 569 371 573 c 0
 373 573 375 575 379 575 c 0
 389 575 406 569 414 549 c 1
 422 537 449 430 449 348 c 2
 449 332 l 1
 443 226 435 207 410 162 c 1
 406 152 l 2
 404 148 401 143 401 141 c 0
 401 137 402 135 406 127 c 0
 431 47 438 -20 438 -104 c 0
 438 -106 440 -109 440 -111 c 2
 440 -111 442 -115 442 -117 c 0
 454 -152 489 -248 489 -342 c 0
 489 -362 487 -381 485 -399 c 0
 479 -430 471 -456 463 -481 c 1
 475 -528 489 -590 489 -651 c 0
 489 -669 487 -689 485 -707 c 0
 479 -738 471 -763 463 -788 c 1
 475 -833 489 -897 489 -956 c 0
 489 -976 487 -996 485 -1012 c 0
 479 -1045 471 -1069 463 -1094 c 1
 475 -1141 489 -1203 489 -1264 c 0
 489 -1282 487 -1301 485 -1319 c 0
 465 -1438 420 -1487 291 -1626 c 0
 195 -1730 92 -1759 61 -1954 c 0
 57 -1968 35 -1987 23 -1987 c 0
 13 -1987 0 -1964 0 -1964 c 1
 0 -61 l 1
 0 741 l 2
 0 901 162 1051 365 1051 c 0
 471 1051 545 989 545 897 c 0
 545 741 342 588 178 588 c 0
395 -1356 m 0
 415 -1319 422 -1291 422 -1266 c 0
 422 -1252 420 -1239 420 -1225 c 0
 420 -1217 416 -1200 414 -1182 c 1
 383 -1221 346 -1262 291 -1321 c 0
 209 -1411 104 -1446 63 -1581 c 1
 165 -1577 295 -1528 395 -1356 c 0
395 -1051 m 0
 415 -1012 422 -986 422 -963 c 0
 422 -947 420 -934 420 -922 c 0
 420 -910 416 -892 414 -874 c 1
 383 -913 346 -957 291 -1014 c 1
 209 -1104 104 -1139 63 -1274 c 1
 165 -1272 295 -1223 395 -1051 c 0
395 -743 m 0
 415 -706 422 -678 422 -655 c 0
 422 -641 420 -626 420 -614 c 0
 420 -602 416 -585 414 -569 c 1
 383 -608 346 -652 291 -709 c 1
 209 -799 104 -832 63 -969 c 1
 165 -965 295 -915 395 -743 c 0
401 -217 m 1
 374 -266 332 -313 262 -389 c 0
 180 -479 90 -508 61 -662 c 1
 167 -662 291 -616 395 -438 c 0
 415 -399 422 -373 422 -348 c 0
 422 -334 420 -321 420 -307 c 0
 420 -289 411 -254 403 -223 c 0
 403 -221 401 -217 401 -217 c 1
248 -70 m 0
 170 -156 96 -195 61 -326 c 1
 61 -334 70 -348 86 -348 c 2
 98 -348 l 2
 196 -348 281 -260 334 -180 c 0
 363 -139 379 -94 379 -45 c 0
 379 -31 377 -14 373 0 c 1
 373 10 371 25 367 37 c 0
 365 43 356 47 348 47 c 0
 342 47 338 45 334 41 c 0
 307 0 279 -33 248 -70 c 0
EndSplineSet
EndChar

StartChar: uniE1E3
Encoding: 57827 57827 19
Width: 929
GlyphClass: 2
Flags: HW
LayerCount: 2
Fore
SplineSet
885 1532 m 0
 912 1471 926 1409 930 1348 c 1
 930 1300 l 2
 930 1228 924 1151 918 1143 c 0
 908 1123 897 1114 887 1114 c 0
 881 1114 876 1116 872 1118 c 0
 862 1120 852 1135 852 1155 c 0
 852 1159 852 1163 854 1167 c 0
 862 1216 866 1264 866 1309 c 0
 866 1389 852 1462 815 1536 c 0
 725 1724 629 1753 545 1759 c 1
 545 901 l 2
 545 745 342 594 178 594 c 0
 78 594 0 652 0 748 c 0
 0 906 162 1055 365 1055 c 0
 418 1055 463 1041 496 1012 c 1
 496 3889 l 2
 496 3899 520 3903 520 3903 c 1
 534 3903 545 3904 547 3875 c 1
 576 3715 668 3674 750 3582 c 1
 776 3553 l 2
 868 3455 912 3408 926 3318 c 0
 928 3304 930 3289 930 3273 c 0
 930 3207 913 3139 899 3092 c 1
 911 3067 920 3044 926 3011 c 0
 928 2997 930 2982 930 2966 c 0
 930 2903 913 2832 899 2787 c 1
 911 2762 920 2736 926 2705 c 0
 928 2691 930 2674 930 2658 c 0
 930 2595 913 2527 899 2480 c 1
 911 2455 920 2429 926 2400 c 0
 928 2386 930 2371 930 2355 c 0
 930 2289 913 2220 899 2175 c 1
 911 2150 920 2124 926 2093 c 0
 928 2079 930 2062 930 2046 c 0
 930 1987 913 1921 901 1874 c 1
 907 1856 914 1833 918 1808 c 0
 922 1790 922 1769 922 1749 c 0
 922 1655 889 1564 885 1552 c 0
 883 1552 883 1548 883 1544 c 0
 883 1540 885 1534 885 1532 c 0
860 1708 m 0
 862 1718 864 1731 864 1741 c 0
 864 1790 848 1835 819 1876 c 0
 770 1952 684 2036 590 2036 c 2
 580 2036 l 2
 568 2036 561 2025 561 2015 c 1
 590 1888 661 1851 737 1767 c 0
 768 1732 794 1702 819 1661 c 0
 823 1657 827 1655 831 1655 c 0
 839 1655 848 1661 850 1667 c 0
 856 1679 856 1692 860 1708 c 0
860 2011 m 2
 864 2023 864 2036 864 2048 c 0
 864 2068 858 2093 840 2126 c 0
 750 2273 647 2316 561 2318 c 1
 592 2187 672 2161 750 2077 c 0
 791 2034 823 1999 848 1968 c 1
 860 2011 l 2
860 2318 m 0
 864 2330 864 2341 864 2355 c 0
 864 2375 860 2398 840 2431 c 0
 750 2585 649 2626 561 2626 c 1
 594 2487 674 2445 750 2355 c 1
 787 2316 817 2284 840 2257 c 1
 848 2280 856 2304 860 2318 c 0
860 2626 m 0
 864 2636 864 2648 864 2660 c 0
 864 2680 860 2703 840 2736 c 0
 750 2890 649 2931 561 2931 c 1
 594 2792 674 2750 750 2662 c 1
 787 2623 817 2591 840 2562 c 1
 848 2585 856 2610 860 2626 c 0
860 2931 m 0
 864 2943 864 2954 864 2968 c 0
 864 2986 860 3010 840 3043 c 0
 750 3197 649 3238 561 3238 c 1
 594 3099 674 3058 750 2970 c 0
 787 2929 817 2896 840 2869 c 1
 848 2892 856 2917 860 2931 c 0
860 3238 m 0
 864 3248 864 3259 864 3273 c 0
 864 3291 858 3315 840 3348 c 0
 750 3502 649 3543 561 3543 c 1
 594 3404 674 3363 750 3275 c 1
 787 3236 817 3203 840 3174 c 1
 848 3199 856 3224 860 3238 c 0
EndSplineSet
EndChar

StartChar: uniE1E4
Encoding: 57828 57828 20
Width: 544
GlyphClass: 2
Flags: HW
LayerCount: 2
Fore
SplineSet
178 588 m 0
 127 588 80 604 49 633 c 1
 49 -55 l 1
 135 -47 225 -14 334 176 c 0
 373 242 385 293 385 340 c 0
 385 395 364 446 352 520 c 0
 350 524 350 529 350 535 c 0
 350 555 363 569 373 575 c 1
 377 575 379 578 381 578 c 0
 393 578 408 569 418 551 c 0
 424 537 451 430 451 350 c 2
 451 332 l 1
 445 232 436 211 416 170 c 2
 414 166 l 1
 408 154 l 2
 406 150 406 145 406 143 c 0
 406 139 406 135 408 129 c 0
 410 121 442 45 442 -45 c 0
 442 -63 442 -82 438 -100 c 1
 440 -100 492 -223 492 -340 c 0
 492 -360 489 -381 487 -397 c 0
 481 -430 475 -454 465 -479 c 1
 479 -526 492 -586 492 -645 c 0
 492 -665 489 -685 487 -705 c 0
 481 -736 475 -761 465 -786 c 1
 479 -831 492 -893 492 -952 c 0
 492 -970 489 -992 487 -1012 c 0
 481 -1043 475 -1069 465 -1094 c 1
 479 -1139 492 -1200 492 -1257 c 0
 492 -1277 489 -1299 487 -1317 c 0
 481 -1348 475 -1374 465 -1399 c 1
 479 -1446 492 -1506 492 -1565 c 0
 492 -1585 489 -1604 487 -1624 c 0
 467 -1741 422 -1792 293 -1929 c 1
 199 -2033 94 -2064 63 -2257 c 0
 59 -2273 37 -2292 25 -2292 c 0
 13 -2292 0 -2269 0 -2269 c 1
 0 -59 l 1
 0 741 l 2
 0 901 162 1051 365 1051 c 0
 471 1051 545 989 545 897 c 0
 545 741 342 588 178 588 c 0
397 -1661 m 0
 420 -1622 424 -1594 424 -1569 c 0
 424 -1557 422 -1544 422 -1530 c 0
 422 -1520 420 -1503 414 -1487 c 1
 387 -1524 348 -1567 293 -1624 c 1
 209 -1716 104 -1749 63 -1886 c 1
 165 -1882 299 -1831 397 -1661 c 0
397 -1356 m 0
 420 -1315 424 -1289 424 -1264 c 0
 424 -1250 422 -1237 422 -1225 c 0
 422 -1215 420 -1198 414 -1180 c 1
 387 -1217 348 -1260 293 -1317 c 1
 209 -1409 107 -1444 66 -1579 c 1
 168 -1577 299 -1526 397 -1356 c 0
397 -1049 m 0
 420 -1010 424 -981 424 -956 c 0
 424 -944 422 -930 422 -920 c 0
 422 -908 420 -890 414 -872 c 1
 389 -909 354 -948 305 -999 c 2
 293 -1012 l 1
 209 -1102 107 -1137 66 -1274 c 1
 168 -1270 299 -1221 397 -1049 c 0
397 -741 m 0
 420 -702 424 -674 424 -651 c 0
 424 -637 422 -626 422 -612 c 0
 422 -602 420 -585 414 -567 c 1
 389 -602 354 -641 307 -692 c 1
 295 -707 l 1
 209 -797 107 -832 66 -967 c 1
 168 -963 299 -913 397 -741 c 0
403 -215 m 1
 376 -264 336 -311 266 -389 c 1
 182 -477 93 -505 66 -659 c 1
 170 -659 293 -614 397 -436 c 0
 420 -397 424 -371 424 -346 c 0
 424 -332 422 -319 422 -307 c 0
 422 -284 413 -248 403 -215 c 1
250 -70 m 0
 174 -154 98 -193 61 -324 c 1
 61 -332 70 -346 86 -346 c 2
 100 -346 l 2
 200 -346 283 -258 338 -178 c 0
 365 -137 381 -94 381 -45 c 0
 381 -29 381 -12 377 2 c 1
 377 12 373 27 371 39 c 0
 369 45 358 49 350 49 c 0
 346 49 340 47 338 43 c 0
 309 2 283 -31 250 -70 c 0
EndSplineSet
EndChar

StartChar: uniE1E5
Encoding: 57829 57829 21
Width: 929
GlyphClass: 2
Flags: HW
LayerCount: 2
Fore
SplineSet
928 1264 m 0
 928 1250 930 1233 930 1217 c 0
 930 1145 921 1067 915 1059 c 0
 905 1039 897 1030 885 1030 c 0
 881 1030 874 1032 872 1034 c 0
 860 1036 850 1053 850 1071 c 0
 850 1077 850 1079 852 1085 c 0
 860 1132 864 1180 864 1225 c 0
 864 1305 850 1380 815 1452 c 0
 723 1640 627 1669 545 1675 c 1
 545 922 l 2
 545 766 342 614 178 614 c 0
 78 614 0 672 0 768 c 0
 0 928 162 1077 365 1077 c 0
 418 1077 463 1061 496 1034 c 1
 496 4114 l 2
 496 4124 520 4129 520 4129 c 1
 534 4129 545 4129 547 4100 c 1
 576 3938 668 3897 750 3805 c 1
 774 3779 l 2
 866 3679 910 3633 924 3543 c 0
 926 3527 928 3512 928 3496 c 0
 928 3433 911 3363 897 3316 c 1
 911 3291 920 3265 924 3234 c 0
 926 3220 928 3205 928 3189 c 0
 928 3126 911 3056 897 3011 c 1
 911 2986 920 2960 924 2929 c 0
 926 2913 928 2898 928 2882 c 0
 928 2819 911 2748 897 2703 c 1
 911 2678 920 2652 924 2621 c 0
 926 2607 928 2592 928 2576 c 0
 928 2510 911 2443 897 2396 c 1
 911 2371 920 2347 924 2316 c 0
 926 2302 928 2287 928 2271 c 0
 928 2208 911 2136 897 2091 c 1
 911 2066 920 2040 924 2011 c 0
 926 1995 928 1978 928 1962 c 0
 928 1903 913 1837 899 1790 c 1
 905 1772 913 1749 915 1724 c 1
 919 1706 922 1685 922 1667 c 0
 922 1571 887 1480 883 1470 c 0
 881 1468 881 1464 881 1462 c 0
 881 1456 883 1450 883 1448 c 0
 910 1389 924 1325 928 1264 c 0
858 1624 m 0
 860 1634 862 1647 862 1659 c 0
 862 1706 846 1751 817 1792 c 0
 768 1868 684 1954 588 1954 c 2
 578 1954 l 2
 570 1954 561 1945 561 1931 c 1
 588 1806 659 1769 735 1683 c 0
 766 1650 792 1618 817 1577 c 0
 821 1573 825 1571 831 1571 c 0
 839 1571 848 1577 848 1583 c 1
 856 1595 856 1610 858 1624 c 0
858 1929 m 2
 862 1939 864 1952 864 1964 c 0
 864 1987 858 2009 840 2042 c 0
 750 2192 647 2232 559 2234 c 1
 590 2103 672 2077 750 1995 c 0
 791 1950 821 1915 846 1884 c 1
 858 1929 l 2
858 2234 m 0
 862 2246 864 2257 864 2271 c 0
 864 2291 858 2314 840 2347 c 0
 748 2503 647 2542 559 2542 c 1
 592 2403 672 2361 750 2273 c 0
 787 2232 815 2200 840 2173 c 1
 848 2196 854 2220 858 2234 c 0
858 2542 m 2
 862 2552 864 2564 864 2576 c 0
 864 2599 858 2621 840 2654 c 0
 748 2808 647 2847 559 2847 c 1
 592 2708 672 2666 750 2580 c 2
 840 2478 l 1
 858 2542 l 2
858 2847 m 0
 862 2859 864 2872 864 2884 c 0
 864 2904 858 2926 840 2959 c 0
 748 3113 647 3154 559 3154 c 1
 592 3015 672 2974 750 2888 c 0
 787 2847 815 2814 840 2785 c 1
 848 2808 854 2833 858 2847 c 0
858 3154 m 2
 862 3166 864 3177 864 3191 c 0
 864 3209 858 3232 840 3265 c 0
 748 3421 647 3461 559 3461 c 1
 592 3322 672 3281 750 3193 c 2
 840 3092 l 1
 858 3154 l 2
858 3461 m 0
 862 3471 864 3484 864 3496 c 0
 864 3519 856 3541 838 3574 c 0
 748 3728 647 3766 559 3766 c 1
 592 3627 672 3586 750 3498 c 0
 785 3459 815 3427 840 3398 c 1
 848 3421 854 3445 858 3461 c 0
EndSplineSet
EndChar

StartChar: uniE1E6
Encoding: 57830 57830 22
Width: 544
GlyphClass: 2
Flags: HW
LayerCount: 2
Fore
SplineSet
545 897 m 0
 545 821 496 743 426 686 c 1
 436 647 451 575 451 516 c 2
 451 498 l 1
 445 392 437 373 412 330 c 2
 406 319 l 1
 406 313 403 311 403 307 c 0
 403 303 406 301 406 295 c 0
 406 293 406 291 408 291 c 0
 416 271 442 201 442 119 c 0
 442 103 442 84 438 66 c 1
 440 66 492 -57 492 -176 c 0
 492 -194 489 -215 487 -233 c 0
 481 -264 475 -290 465 -315 c 1
 479 -360 492 -422 492 -479 c 0
 492 -499 489 -521 487 -539 c 0
 481 -570 475 -596 465 -621 c 1
 479 -668 492 -727 492 -786 c 0
 492 -806 489 -826 487 -846 c 0
 481 -877 475 -903 465 -928 c 1
 479 -973 492 -1035 492 -1094 c 0
 492 -1112 489 -1133 487 -1151 c 0
 481 -1184 475 -1208 465 -1233 c 1
 479 -1280 492 -1340 492 -1399 c 0
 492 -1419 489 -1438 487 -1458 c 0
 481 -1491 473 -1519 463 -1544 c 1
 479 -1593 494 -1657 494 -1720 c 0
 494 -1738 491 -1758 487 -1776 c 0
 467 -1895 422 -1946 293 -2083 c 0
 199 -2185 94 -2215 63 -2410 c 0
 59 -2424 37 -2445 25 -2445 c 0
 13 -2445 0 -2421 0 -2421 c 1
 0 106 l 1
 0 741 l 2
 0 901 162 1051 365 1051 c 0
 471 1051 545 989 545 897 c 0
61 -160 m 1
 61 -168 70 -180 86 -180 c 2
 100 -180 l 2
 200 -180 283 -94 338 -12 c 0
 365 29 381 72 381 121 c 0
 381 135 381 152 377 168 c 0
 377 176 373 193 371 205 c 0
 369 209 358 215 350 215 c 0
 346 215 340 213 338 209 c 0
 309 168 283 135 250 98 c 0
 174 12 98 -29 61 -160 c 1
397 -1815 m 0
 420 -1776 422 -1749 422 -1724 c 2
 422 -1683 l 1
 422 -1683 418 -1650 414 -1630 c 1
 387 -1665 352 -1700 307 -1749 c 2
 293 -1765 l 1
 209 -1857 102 -1893 63 -2038 c 1
 167 -2036 297 -1987 397 -1815 c 0
397 -1495 m 0
 420 -1458 422 -1430 422 -1407 c 2
 422 -1364 l 2
 422 -1356 420 -1339 414 -1321 c 1
 387 -1358 348 -1401 293 -1458 c 1
 209 -1550 104 -1585 63 -1720 c 1
 165 -1716 299 -1667 397 -1495 c 0
397 -1190 m 0
 420 -1151 422 -1125 422 -1102 c 2
 422 -1059 l 2
 422 -1049 420 -1032 414 -1014 c 1
 387 -1053 348 -1094 293 -1151 c 1
 209 -1243 104 -1278 63 -1413 c 1
 165 -1411 299 -1360 397 -1190 c 0
397 -883 m 0
 420 -846 422 -818 422 -795 c 2
 422 -752 l 2
 422 -742 420 -725 414 -709 c 1
 389 -744 354 -783 305 -834 c 2
 293 -846 l 1
 209 -938 104 -971 63 -1108 c 1
 165 -1104 299 -1053 397 -883 c 0
397 -578 m 0
 420 -539 422 -512 422 -489 c 2
 422 -446 l 2
 422 -436 420 -419 414 -401 c 1
 389 -438 354 -475 307 -526 c 1
 295 -541 l 1
 209 -631 104 -666 63 -801 c 1
 165 -799 299 -750 397 -578 c 0
422 -141 m 2
 422 -118 413 -82 403 -49 c 1
 376 -98 336 -145 266 -223 c 1
 182 -311 93 -340 66 -496 c 1
 170 -496 293 -448 397 -270 c 0
 420 -233 422 -207 422 -184 c 2
 422 -141 l 2
383 504 m 0
 383 549 372 590 360 643 c 1
 303 610 237 588 178 588 c 0
 127 588 82 604 49 633 c 1
 49 111 l 1
 135 119 225 152 334 340 c 0
 373 410 383 459 383 504 c 0
EndSplineSet
EndChar

StartChar: uniE1E7
Encoding: 57831 57831 23
Width: 233
GlyphClass: 2
Flags: HW
LayerCount: 2
Fore
SplineSet
0 819 m 0
 0 882 54 938 117 938 c 0
 180 938 233 882 233 819 c 0
 233 758 180 702 117 702 c 0
 54 702 0 758 0 819 c 0
EndSplineSet
EndChar

StartChar: uniE550
Encoding: 58704 58704 24
Width: 529
GlyphClass: 2
Flags: HWO
LayerCount: 2
Fore
SplineSet
630 -100 m 1
 577 -256 433 -333 257 -333 c 0
 77 -333 -53 -258 -100 -100 c 1
 -77 -100 l 1
 -28 -200 140 -252 259 -252 c 0
 380 -252 550 -200 607 -100 c 1
 630 -100 l 1
EndSplineSet
EndChar

StartChar: uniE551
Encoding: 58705 58705 25
Width: 892
GlyphClass: 2
Flags: HWO
LayerCount: 2
Fore
SplineSet
893 0 m 1
 840 -156 582 -233 373 -233 c 0
 170 -233 -84 -158 -131 0 c 1
 -109 0 l 1
 -60 -100 225 -152 375 -152 c 0
 541 -152 813 -100 870 0 c 1
 893 0 l 1
EndSplineSet
EndChar

StartChar: uniE552
Encoding: 58706 58706 26
Width: 1220
GlyphClass: 2
Flags: HW
LayerCount: 2
Fore
SplineSet
1221 0 m 1
 1168 -156 852 -233 537 -233 c 0
 242 -233 -84 -158 -131 0 c 1
 -109 0 l 1
 -60 -100 310 -152 539 -152 c 0
 764 -152 1141 -100 1198 0 c 1
 1221 0 l 1
EndSplineSet
EndChar
